<?xml version="1.0" encoding="utf-8"?>
<svg xmlns="http://www.w3.org/2000/svg" viewBox="0 0 500 500">
  <path d="M 222.747 52.414 C 199.677 53.238 172.391 55.115 161.506 56.61 C 159.98 56.821 157.087 57.191 155.087 57.434 C 141.547 59.082 126.485 62.327 118.08 65.403 C 116.087 66.138 113.647 67.192 112.664 67.748 C 102.693 73.355 94.358 85.428 87.07 104.838 C 85.454 109.136 82.363 118.948 81.25 123.298 C 81.033 124.154 80.555 125.986 80.197 127.378 C 79.188 131.243 76.754 142.581 75.981 147.001 C 75.764 148.284 75.432 150.086 75.253 150.999 C 75.075 151.918 74.838 153.49 74.729 154.486 C 74.627 155.49 74.487 156.415 74.403 156.55 C 74.327 156.683 73.86 159.921 73.37 163.748 C 72.878 167.574 72.309 170.883 72.111 171.093 C 71.874 171.355 71.574 171.17 71.204 170.512 C 69.505 167.491 63.322 161.672 58.838 158.868 C 52.821 155.113 42.244 152.238 34.503 152.258 C 29.444 152.27 25.516 153.254 21.384 155.54 C 16.855 158.044 13.342 162.368 11.247 167.976 C 10.301 170.512 10.231 171.042 10.231 175.788 C 10.231 178.592 10.403 181.307 10.602 181.817 C 13.188 188.32 15.098 191.271 18.681 194.368 C 23.14 198.213 30.447 201.465 38.513 203.201 C 41.439 203.834 43.585 203.988 49.436 203.994 C 56.864 204.007 60.652 203.515 66.369 201.81 C 67.474 201.484 68.451 201.209 68.534 201.209 C 68.937 201.209 68.623 202.219 67.888 203.31 C 65.583 206.728 60.926 216.373 59.905 219.867 C 59.202 222.287 57.727 229.147 57.114 232.883 C 55.925 240.082 54.802 248.66 54.98 248.992 C 55.056 249.12 54.897 251.841 54.628 255.041 C 54.054 262.01 54.003 268.346 54.482 273.212 C 54.667 275.186 54.89 277.843 54.96 279.127 C 55.197 283.183 56.819 291.806 58.11 295.836 C 60.518 303.392 64.088 310.094 68.521 315.41 C 70.699 318.018 75.26 321.638 79.105 323.808 C 83.435 326.256 93.163 330.594 96.976 331.78 C 97.539 331.959 99.882 332.743 102.175 333.523 C 106.225 334.899 122.954 339.711 127.162 340.705 C 128.305 340.976 129.711 341.349 130.279 341.533 C 130.854 341.718 132.886 342.217 134.789 342.642 C 136.699 343.067 139.349 343.688 140.69 344.021 C 142.026 344.355 143.897 344.784 144.855 344.976 C 145.807 345.167 148.074 345.673 149.882 346.098 C 151.696 346.524 153.567 346.952 154.046 347.049 C 154.519 347.146 156.48 347.581 158.383 348.013 C 160.293 348.445 164.822 349.438 168.45 350.22 C 172.071 351.002 176.133 351.896 177.469 352.207 C 179.908 352.775 186.436 354.244 188.052 354.59 C 219.759 361.381 241.871 367.68 254.774 373.593 C 262.629 377.189 266.743 379.884 270.147 383.655 C 273.788 387.701 274.395 389.924 273.77 397.099 C 273.386 401.635 273.296 402.193 271.974 408.915 C 269.706 420.441 264.884 432.597 258.05 444.088 C 255.348 448.623 252.743 452.476 250.896 454.671 C 250.232 455.467 249.779 456.23 249.9 456.363 C 250.181 456.68 262.138 449.724 276.004 441.178 C 277.154 440.47 285.323 435.322 290.057 432.329 C 311.281 418.894 336.901 400.704 356.465 385.189 C 358.33 383.707 360.195 382.237 360.61 381.922 C 367.253 376.83 384.007 362.182 395.517 351.406 C 403.284 344.129 418.122 328.329 425.236 319.735 C 434.69 308.324 438.35 301.138 440.758 289.232 C 442.993 278.157 443.377 270.179 442.527 252.115 C 442.15 244.036 439.608 227.69 437.628 220.639 C 436.784 217.618 433.157 209.736 430.583 205.335 L 428.111 201.107 L 429.254 201.394 C 429.886 201.547 431.023 201.836 431.79 202.027 C 438.509 203.701 440.949 204.007 447.745 204.019 C 454.682 204.033 457.377 203.707 463.049 202.168 C 473.486 199.332 481.648 193.315 484.958 186.008 C 486.797 181.938 487.167 180.196 487.167 175.622 C 487.167 170.927 486.458 168.066 484.312 164.067 C 482 159.775 476.756 155.285 472.305 153.797 C 463.33 150.795 450.702 152.398 440.419 157.859 C 434.97 160.745 429.663 165.352 426.623 169.835 C 425.192 171.937 424.809 171.726 424.541 168.666 C 424.412 167.223 424.151 164.993 423.965 163.71 C 423.774 162.432 423.454 160.241 423.256 158.855 C 422.758 155.361 421.423 147.569 420.362 141.954 C 419.003 134.788 415.687 121.439 413.701 115.147 C 413.228 113.647 412.519 111.366 412.117 110.089 C 411.728 108.804 411.267 107.585 411.108 107.386 C 410.935 107.183 410.795 106.793 410.795 106.525 C 410.795 105.879 409.575 102.858 406.516 95.928 C 399.866 80.893 392.055 71.178 383.329 67.102 C 377.664 64.46 365.247 61.062 355.284 59.427 C 347.785 58.194 345.428 57.843 342.1 57.434 C 340.094 57.191 337.208 56.827 335.681 56.629 C 332.896 56.265 332.117 56.183 324.752 55.492 C 293.174 52.529 253.093 51.322 222.747 52.414 M 222.224 71.031 C 219.937 71.19 215.875 71.337 213.205 71.363 C 208.612 71.414 205.566 71.593 192.389 72.615 C 189.336 72.857 184.808 73.195 182.329 73.381 C 171.637 74.173 164.113 75.042 151.964 76.9 C 142.536 78.35 132.988 80.317 129.596 81.518 C 121.708 84.309 119.766 85.465 116.176 89.49 C 107.56 99.153 100.279 118.91 93.885 149.92 C 93.418 152.207 93.093 154.02 91.444 163.569 C 90.851 167.037 91.081 168.424 92.652 170.863 C 93.77 172.601 97.391 175.431 100.368 176.899 C 104.603 179.001 113.532 181.887 120.22 183.338 C 121.363 183.586 122.921 183.932 123.688 184.117 C 126.485 184.781 136.845 186.576 141.559 187.209 C 143.367 187.451 146.024 187.816 147.455 188.013 C 149.806 188.339 154.079 188.805 165.32 189.942 C 167.421 190.153 170.468 190.415 172.091 190.517 C 173.713 190.619 177.225 190.874 179.896 191.085 C 197.824 192.516 220.96 193.245 248.597 193.245 C 276.637 193.245 296.189 192.632 317.464 191.073 C 320.421 190.862 323.941 190.607 325.276 190.511 C 330.597 190.127 344.936 188.664 349.911 187.994 C 352.518 187.642 357.084 186.998 359.793 186.601 C 362.143 186.256 365.88 185.625 367.598 185.279 C 368.556 185.088 370.032 184.82 370.893 184.685 C 371.756 184.551 373.008 184.283 373.672 184.104 C 374.342 183.918 375.901 183.561 377.147 183.312 C 378.379 183.057 381.503 182.245 384.077 181.504 C 386.657 180.764 389.238 180.022 389.807 179.856 C 390.381 179.696 392.496 178.835 394.508 177.954 C 400.728 175.22 404.159 172.466 405.647 169.024 C 406.465 167.146 406.432 166.82 404.854 158.076 C 404.485 156.045 403.954 153.074 403.667 151.471 C 403.034 147.959 401.585 141.13 400.901 138.455 C 400.626 137.388 400.173 135.549 399.892 134.373 C 399.011 130.668 397.343 124.479 396.545 121.937 C 391.078 104.449 385.042 92.511 378.986 87.184 C 376.54 85.038 375.014 84.176 371.034 82.719 C 365.075 80.541 355.341 78.344 344.355 76.702 C 335.335 75.349 328.469 74.537 319.546 73.765 C 316.781 73.521 312.623 73.152 310.317 72.941 C 304.888 72.449 295.531 71.873 284.851 71.375 C 274.434 70.896 227.959 70.635 222.224 71.031 M 52.387 79.583 C 52.387 80.228 52.751 81.576 53.185 82.592 C 54.137 84.795 59.553 95.481 61.457 98.905 C 62.198 100.233 62.791 101.414 62.791 101.53 C 62.791 101.645 64.433 104.576 66.42 108.044 C 70.757 115.608 75.419 122.933 75.835 122.844 C 76.001 122.806 76.333 122.103 76.575 121.292 C 76.825 120.468 77.738 117.44 78.625 114.553 C 79.5 111.667 80.293 108.869 80.389 108.32 C 80.529 107.47 79.596 106.269 73.497 99.352 C 69.613 94.964 64.721 89.298 62.619 86.775 C 58.155 81.397 54.751 78.415 53.089 78.415 C 52.546 78.415 52.387 78.669 52.387 79.583 M 441.793 79.564 C 439.787 80.86 435.341 85.645 430.761 91.431 C 429.068 93.571 425.192 98.049 422.139 101.389 L 416.595 107.464 L 418.823 114.962 C 420.05 119.088 421.225 122.531 421.436 122.607 C 422.1 122.851 427.6 114.004 433.7 102.897 C 436.606 97.589 436.836 97.167 438.893 92.99 C 439.531 91.706 440.393 90.039 440.809 89.298 C 442.776 85.766 444.794 81.129 444.877 79.934 C 445.005 78.152 444.143 78.044 441.793 79.564 M 158.383 90.786 C 154.864 92.146 152.009 94.191 149.359 97.257 C 141.745 106.097 141.182 120.11 148.062 129.915 C 150.878 133.932 155.618 137.349 160.088 138.57 C 162.676 139.272 168.162 139.617 168.724 139.105 C 168.954 138.908 169.843 138.607 170.698 138.448 C 174.332 137.777 178.893 134.731 181.908 130.95 C 185.3 126.702 187.708 119.727 187.708 114.17 C 187.708 111.169 186.698 106.824 185.177 103.287 C 183.281 98.854 179.379 94.421 175.559 92.345 C 171.464 90.122 169.74 89.681 165.199 89.707 C 161.724 89.72 160.772 89.873 158.383 90.786 M 324.924 90.799 C 322.127 91.872 319.093 93.808 317.081 95.794 C 314.265 98.585 311.365 103.963 310.375 108.23 C 309.672 111.296 309.672 117.428 310.381 120.519 C 312.386 129.257 318.837 136.404 326.656 138.57 C 329.211 139.272 334.697 139.617 335.272 139.105 C 335.489 138.908 336.384 138.614 337.245 138.467 C 338.102 138.32 340.126 137.477 341.755 136.602 C 347.178 133.664 351.821 127.335 353.386 120.749 C 354.018 118.073 354.044 110.74 353.431 108.14 C 353.169 107.074 352.626 105.426 352.211 104.474 C 351.802 103.529 351.464 102.533 351.464 102.271 C 351.464 102.008 351.355 101.74 351.208 101.664 C 351.068 101.594 350.486 100.776 349.918 99.85 C 348.302 97.174 344.77 93.808 342.017 92.313 C 338.069 90.167 336.134 89.681 331.657 89.713 C 328.297 89.732 327.287 89.898 324.924 90.799 M 245.25 91.451 C 240.192 92.581 235.841 95.985 233.095 100.961 C 232.789 101.491 232.144 103.209 231.639 104.768 C 230.917 107.023 230.726 108.313 230.726 111.009 C 230.726 118.264 233.44 124.064 238.614 127.87 C 242.918 131.045 246.988 132.061 251.516 131.102 C 258.395 129.634 263.351 124.952 265.619 117.772 C 266.692 114.356 266.775 108.927 265.804 105.349 C 263.83 98.081 258.586 92.919 251.675 91.431 C 248.539 90.761 248.341 90.767 245.25 91.451 M 104.264 127.864 C 103.121 131.684 99.576 146.585 99.576 147.569 C 99.576 147.895 100.656 148.489 104.609 150.348 C 104.98 150.526 106.155 151.043 107.202 151.491 C 110.09 152.73 116.822 156.46 119.351 158.216 C 124.499 161.787 126.294 164.118 126.294 167.254 C 126.287 169.222 126.901 177.059 127.176 178.534 C 127.303 179.224 127.654 179.422 129.149 179.626 C 130.152 179.767 131.755 180.042 132.707 180.233 C 134.769 180.661 140.563 181.569 144.676 182.118 C 146.299 182.335 149.039 182.711 150.751 182.942 C 154.806 183.498 160.299 184.041 166.431 184.487 C 169.14 184.692 172.103 184.953 173.023 185.075 C 176.848 185.58 193.149 186.461 209.999 187.074 C 214.77 187.246 217.197 187.201 217.197 186.947 C 217.197 186.117 212.414 169.733 209.897 161.966 C 209.104 159.507 208.14 156.531 207.764 155.355 C 206.62 151.803 204.122 146.278 203.253 145.403 C 202.251 144.388 196.266 140.978 195.481 140.978 C 195.365 140.978 194.778 140.728 194.172 140.415 C 192.14 139.374 184.686 136.705 183.785 136.705 C 183.3 136.705 182.437 137.139 181.863 137.675 C 181.301 138.212 180.662 138.646 180.451 138.646 C 180.246 138.646 180.068 138.781 180.068 138.947 C 180.068 139.105 179.781 139.412 179.416 139.623 C 179.065 139.834 178.164 140.384 177.43 140.843 C 176.689 141.296 174.837 142.159 173.304 142.759 C 170.743 143.755 170.13 143.839 165.32 143.826 C 160.9 143.82 159.782 143.692 157.879 142.976 C 155.751 142.171 152.954 140.747 151.441 139.706 C 149.843 138.607 146.018 135.043 145.526 134.194 C 145.225 133.69 144.74 133.172 144.446 133.038 C 143.789 132.757 142.013 133.938 140.882 135.414 C 140.416 136.021 138.858 137.994 137.401 139.814 C 134.783 143.091 132.886 145.94 131.806 148.169 C 131.461 148.891 130.918 149.377 130.388 149.453 C 129.666 149.549 129.475 149.338 129.129 148.042 C 128.561 145.927 128.619 141.246 129.264 137.056 C 129.564 135.114 129.73 133.434 129.627 133.325 C 129.532 133.217 128.076 133.063 126.396 132.981 C 119.128 132.635 111.686 130.975 107.247 128.694 C 104.302 127.187 104.45 127.226 104.264 127.864 M 391.869 127.704 C 391.09 128.471 387.009 130.112 383.694 130.987 C 379.331 132.151 374.528 132.859 370.51 132.948 C 367.068 133.018 367.265 132.649 368.115 137.484 C 368.716 140.952 368.747 146.286 368.173 148.093 C 367.464 150.348 366.614 149.926 364.328 146.157 C 362.424 143.04 360.061 139.859 356.356 135.446 C 353.891 132.502 353.444 132.527 350.32 135.765 C 347.267 138.933 344.093 141.073 340.12 142.638 C 337.227 143.782 336.805 143.845 331.867 143.839 C 327.09 143.839 326.426 143.749 323.883 142.765 C 320.702 141.533 317.917 139.885 315.867 138.007 C 315.069 137.279 314.047 136.705 313.555 136.705 C 311.652 136.705 299.197 141.744 296.572 143.577 C 295.856 144.069 295.147 144.478 294.981 144.478 C 294.432 144.478 293.244 146.221 292.196 148.559 C 289.84 153.822 287.789 160.184 280.68 184.41 C 280.284 185.752 280.035 186.978 280.111 187.132 C 280.201 187.285 283.216 187.298 286.812 187.15 C 303.476 186.474 321.252 185.496 324.752 185.075 C 325.799 184.947 328.77 184.679 331.344 184.487 C 340.266 183.817 350.403 182.603 358.924 181.186 C 367.509 179.761 369.712 179.339 369.968 179.071 C 370.12 178.911 370.46 175.597 370.715 171.707 C 371.015 167.293 371.36 164.387 371.641 163.977 C 373.768 160.868 380.366 156.134 386.856 153.068 C 387.909 152.57 389.238 151.932 389.807 151.644 C 390.381 151.357 392.055 150.59 393.537 149.938 C 397.841 148.048 398.033 147.805 397.279 145.085 C 397.107 144.433 396.315 141.181 395.523 137.873 C 392.981 127.149 392.84 126.753 391.869 127.704 M 228.241 128.35 C 228.037 128.573 220.014 129.595 214.419 130.112 C 212.221 130.311 210.037 130.559 209.565 130.662 C 209.086 130.758 206.907 130.942 204.723 131.071 C 202.538 131.192 199.262 131.467 197.435 131.665 C 195.615 131.862 192.791 132.035 191.176 132.048 C 188.251 132.073 188.237 132.08 189.266 132.706 C 189.834 133.051 190.774 133.459 191.348 133.619 C 193.258 134.137 199.146 136.647 201.74 138.045 C 203.152 138.806 204.461 139.425 204.646 139.425 C 204.838 139.425 205.048 139.56 205.112 139.732 C 205.17 139.904 205.827 140.454 206.563 140.958 C 208.727 142.44 211.11 147.435 214.259 157.105 C 214.955 159.245 215.658 161.34 215.824 161.768 C 216.226 162.77 218.423 169.969 219.324 173.233 C 219.708 174.619 220.155 176.107 220.302 176.536 C 220.461 176.964 221.17 179.409 221.885 181.977 C 222.588 184.539 223.329 186.857 223.526 187.125 C 223.801 187.502 229.224 187.611 248.546 187.605 C 262.119 187.598 273.405 187.47 273.616 187.31 C 273.833 187.158 274.67 184.666 275.469 181.779 C 278.477 170.953 281.644 160.79 284.857 151.67 C 286.167 147.952 288.473 143.283 289.596 142.083 C 291.231 140.326 295.013 138.09 299.599 136.168 C 301.503 135.369 303.579 134.463 304.204 134.156 C 304.837 133.85 305.559 133.594 305.814 133.594 C 306.076 133.594 306.932 133.268 307.723 132.879 L 309.154 132.157 L 304.204 131.914 C 296.763 131.55 281.306 130.126 274.095 129.129 C 271.706 128.797 268.87 128.42 267.784 128.292 L 265.81 128.05 L 263.492 130.401 C 259.187 134.75 253.784 136.889 247.9 136.582 C 245.991 136.481 243.749 136.225 242.906 136.008 C 240.44 135.382 235.796 132.527 233.555 130.26 C 231.709 128.382 231.32 128.159 229.953 128.159 C 229.103 128.159 228.336 128.241 228.241 128.35 M 90.378 222.07 C 86.284 222.601 82.414 225.525 79.973 229.932 C 78.217 233.107 76.575 239.501 77.719 238.709 C 77.904 238.581 78.057 238.127 78.057 237.706 C 78.057 236.236 80.58 231.357 82.515 229.096 C 83.851 227.524 85.236 226.388 86.935 225.474 C 89.19 224.261 89.688 224.14 92.53 224.14 C 97.679 224.14 99.844 225.2 106.436 230.916 L 107.311 231.67 L 106.698 230.629 C 105.089 227.876 100.336 224.14 96.797 222.849 C 95.098 222.23 92.02 221.853 90.378 222.07 M 402.989 222.191 C 400.46 222.619 399.177 223.156 396.609 224.868 C 394.379 226.356 390.113 230.635 390.465 231.031 C 390.567 231.139 391.391 230.533 392.31 229.684 C 396.488 225.794 400.115 224.14 404.44 224.146 C 406.279 224.146 408.106 224.388 409.032 224.746 C 411.338 225.647 414.187 227.927 415.732 230.118 C 417.202 232.2 419.469 237.304 419.469 238.523 C 419.469 238.919 419.647 239.373 419.858 239.519 C 420.791 240.159 419.539 234.902 417.923 231.338 C 414.819 224.497 409.32 221.131 402.989 222.191 M 90.104 232.692 C 86.009 234.436 82.592 238.875 80.83 244.732 C 77.859 254.619 78.85 266.301 83.633 277.569 C 85.575 282.161 87.497 285.125 90.864 288.728 C 95.149 293.327 98.81 295.255 103.249 295.255 C 110.447 295.255 115.34 289.781 118.015 278.737 C 118.681 275.966 118.585 265.248 117.849 261.448 C 115.978 251.758 112.51 244.329 107.1 238.408 C 104.532 235.605 101.447 233.439 98.669 232.494 C 96.357 231.708 92.192 231.805 90.104 232.692 M 398.116 232.615 C 389.481 236.007 382.122 247.383 379.376 261.614 C 378.731 264.948 378.514 272.982 378.974 276.579 C 379.976 284.448 383.7 291.218 388.485 293.901 C 391.244 295.453 395.427 295.709 398.461 294.514 C 407.385 291.007 414.653 279.753 417.444 265.139 C 418.147 261.473 418.019 250.582 417.227 247.453 C 415.47 240.433 412.2 235.291 408.125 233.164 C 405.519 231.805 400.843 231.549 398.116 232.615 M 134.271 268.429 C 132.521 268.799 131.576 269.47 130.982 270.767 C 129.865 273.181 130.433 274.624 133.402 276.879 C 134.457 277.684 141.917 281.133 143.814 281.701 C 144.383 281.867 145.711 282.289 146.758 282.641 C 151.478 284.193 155.567 285.297 161.68 286.658 C 163.678 287.105 166.105 287.648 167.058 287.865 C 172.001 288.976 183.837 290.95 190.307 291.742 C 192.217 291.978 195.148 292.349 196.822 292.579 C 200.667 293.096 206.352 293.601 213.902 294.086 C 217.146 294.29 222.211 294.635 225.182 294.846 C 232.189 295.344 263.818 295.338 271.84 294.84 C 289.43 293.747 294.055 293.378 300.812 292.528 C 316.679 290.535 325.582 289.04 335.681 286.671 C 337.591 286.224 339.819 285.699 340.65 285.508 C 343.639 284.818 351.458 282.41 355.143 281.043 C 362.009 278.501 367.081 275.097 367.081 273.04 C 367.081 271.782 366.065 270 364.896 269.201 C 363.683 268.371 360.055 268.148 358.202 268.787 C 357.641 268.978 355.864 269.336 354.243 269.591 C 352.62 269.847 350.046 270.294 348.519 270.581 C 340.657 272.07 326.272 273.915 310.873 275.41 C 278.585 278.553 239.872 279.325 212.515 277.377 C 209.647 277.173 205.681 276.911 203.694 276.796 C 198.859 276.515 186.06 275.468 184.757 275.251 C 184.181 275.155 182.463 274.982 180.937 274.854 C 175.463 274.419 163.257 272.874 154.398 271.507 C 148.63 270.613 144.063 269.802 139.298 268.824 C 136.392 268.23 135.53 268.16 134.271 268.429 M 147.806 287.13 C 147.806 288.3 150.495 290.273 154.915 292.343 C 159.348 294.419 171.216 297.854 179.551 299.483 C 187.273 300.99 187.937 301.106 195.334 302.222 C 200.271 302.967 214.316 304.441 219.624 304.771 C 221.438 304.882 225.577 305.145 228.816 305.356 C 236.417 305.848 260.739 305.849 268.372 305.358 C 271.616 305.151 275.749 304.889 277.563 304.778 C 285.835 304.271 302.704 302.261 310.176 300.889 C 318.32 299.4 320.108 299.037 325.104 297.829 C 338.778 294.52 349.382 289.884 349.382 287.207 C 349.382 286.517 349.228 286.543 343.658 288.076 C 341.557 288.65 339.219 289.257 338.459 289.423 C 337.692 289.589 335.815 290.024 334.294 290.394 C 332.769 290.759 330.654 291.206 329.607 291.384 C 328.559 291.557 326.291 291.991 324.58 292.337 C 320.709 293.116 316.015 293.837 306.708 295.089 C 301.694 295.766 292.707 296.743 289.194 296.999 C 287.853 297.1 284.417 297.356 281.555 297.574 C 273.507 298.187 257.782 298.756 248.769 298.756 C 232.297 298.756 207.706 297.331 194.989 295.632 C 193.366 295.421 190.007 294.974 187.528 294.649 C 175.098 293.007 161.328 290.298 152.175 287.687 C 148.343 286.588 147.806 286.517 147.806 287.13" stroke="none" fill-rule="evenodd" style="fill: rgb(83, 141, 79);"/>
</svg>